<svg width="138" height="27" viewBox="0 0 138 27" fill="none" xmlns="http://www.w3.org/2000/svg">
<path d="M8.71535 26.4967H3.5314V13.4356H0V9.1832H3.53126V6.1573C3.53126 2.5716 5.09315 0 10.2631 0C11.3565 0 13.0732 0.22275 13.0732 0.22275V4.1713H11.2701C9.43294 4.1713 8.71562 4.7361 8.71562 6.2976V9.1832H13.0044L12.6225 13.4356H8.71549L8.71535 26.4967ZM20.61 8.8434C20.5345 8.8434 20.4568 8.8462 20.3799 8.8481C15.573 8.8481 13.3738 12.5025 13.3738 17.69C13.3738 24.2248 16.2265 26.8402 20.4174 26.8402C22.8152 26.8402 24.3906 25.8202 25.3481 23.9167V26.4985H30.2788V9.185H25.3481V11.8476C24.5663 10.1346 22.9469 8.8637 20.61 8.8434ZM21.8638 12.9345C23.8827 12.9345 25.0944 14.3578 25.0944 16.7787L25.0991 19.2513C25.0991 20.883 24.0982 22.792 21.8638 22.792C18.4285 22.792 18.5203 19.043 18.5203 17.7944C18.5203 13.5943 20.3506 12.9345 21.8638 12.9345ZM32.27 17.8427C32.27 15.7388 32.1704 8.8547 41.0445 8.8547C44.6068 8.8547 46.0942 9.9994 46.0942 9.9994L44.8987 13.7471C44.8987 13.7471 43.4132 12.9203 41.4775 12.9203C38.9983 12.9203 37.4163 14.3729 37.4163 16.9287L37.419 18.7613C37.419 21.2171 38.9454 22.8565 41.4826 22.8565C43.246 22.8565 44.8713 22.0219 44.8713 22.0219L46.0638 25.6913C46.0638 25.6913 44.7038 26.8433 41.0694 26.8433C32.6199 26.8433 32.2702 20.6669 32.2702 17.8427H32.27ZM75.0046 8.8481C79.8115 8.8481 82.0455 12.5025 82.0455 17.69C82.0455 24.2248 79.1926 26.8402 75.0017 26.8402C72.6039 26.8402 70.8314 25.8204 69.8738 23.9167V26.4985L65.0052 26.4965V0.52642L70.1744 0.0707703V11.613C70.9205 9.5937 73.3724 8.8481 75.0047 8.8481H75.0046ZM73.5553 12.9345C71.5364 12.9345 70.1744 14.3578 70.1744 16.7787L70.1696 19.2513C70.1666 20.883 71.1128 22.792 73.5553 22.792C76.9906 22.792 76.8988 19.043 76.8988 17.7944C76.8988 13.5943 75.0687 12.9345 73.5553 12.9345ZM55.0633 8.8624C49.6112 8.8624 46.7328 11.8668 46.7328 17.2058V18.1978C46.7328 25.1274 50.7749 26.9114 55.5939 26.9114C60.2779 26.9114 62.398 25.5873 62.398 25.5873L61.4308 22.0611C61.4308 22.0611 58.9368 23.1336 56.2137 23.1336C53.3906 23.1336 52.1765 22.4064 51.8653 19.6644H62.8113V16.8356C62.8113 11.0441 59.5809 8.8623 55.0631 8.8623L55.0633 8.8624ZM55.1946 12.3933C57.0819 12.3933 58.3048 13.563 58.2377 16.2756H51.8748C51.9852 13.4206 53.304 12.3935 55.1946 12.3935V12.3933ZM92.3527 8.8387C86.7538 8.8387 83.8063 12.0275 83.8063 17.7421C83.8063 25.5829 88.8872 26.845 92.3621 26.845C97.449 26.845 100.833 24.077 100.833 17.8133C100.833 11.2939 97.028 8.8387 92.3527 8.8387ZM92.2823 12.9487C94.7442 12.9487 95.7197 14.8109 95.7197 16.9307V18.7531C95.7197 21.321 94.3547 22.8063 92.2729 22.8063C90.326 22.8063 88.9576 21.4169 88.9576 18.7531V16.9307C88.9576 14.0897 90.5858 12.9487 92.2823 12.9487ZM111.131 8.8387C105.532 8.8387 102.585 12.0275 102.585 17.7421C102.585 25.5829 107.666 26.845 111.141 26.845C116.228 26.845 119.612 24.077 119.612 17.8133C119.612 11.2939 115.807 8.8387 111.131 8.8387ZM111.061 12.9487C113.523 12.9487 114.498 14.8109 114.498 16.9307V18.7531C114.498 21.321 113.133 22.8063 111.052 22.8063C109.105 22.8063 107.736 21.4169 107.736 18.7531V16.9307C107.736 14.0897 109.364 12.9487 111.061 12.9487ZM121.565 26.4967V0.52642L126.75 0.0707703V17.4777L131.893 9.1832H137.368L132.003 17.7738L137.575 26.4967H132.084L126.75 18.0269V26.4967H121.565Z" fill="#1873EB"/>
</svg>
