<svg width="192" height="36" viewBox="0 0 192 36" fill="none" xmlns="http://www.w3.org/2000/svg">
<path d="M0 8.60485C0 4.0483 3.69381 0.354492 8.25036 0.354492H16.5007V8.60484C16.5007 13.1614 12.8069 16.8552 8.25036 16.8552C3.69381 16.8552 0 13.1614 0 8.60485Z" fill="#FF4545"/>
<path d="M0.000244141 27.2973C0.000244141 22.7407 3.69405 19.0469 8.25059 19.0469H16.501V27.2972C16.501 31.8538 12.8072 35.5476 8.2506 35.5476C3.69405 35.5476 0.000244141 31.8538 0.000244141 27.2973Z" fill="#FDB52A"/>
<path d="M18.79 19.047C18.79 28.1601 26.1776 35.5477 35.2907 35.5477V8.60485C35.2907 4.04831 31.5969 0.354492 27.0404 0.354492C22.4838 0.354492 18.79 4.0483 18.79 8.60485V19.047Z" fill="#2A66FF"/>
<path d="M56.2229 26.9661C60.7132 26.9661 63.402 24.6269 63.402 21.1045C63.402 17.6897 60.767 16.5066 56.7876 15.6193C53.9374 14.974 52.8081 14.5438 52.8081 13.1994C52.8081 12.097 53.8568 11.2097 55.5238 11.2097C57.2984 11.2097 59.1537 11.9357 60.8208 13.2801L62.8912 10.4031C60.9821 8.78972 58.6697 7.84863 55.6583 7.84863C51.5982 7.84863 48.8018 10.1879 48.8018 13.6027C48.8018 17.1789 51.5982 18.2813 55.4969 19.1686C58.3202 19.8139 59.3957 20.2172 59.3957 21.5347C59.3957 22.6909 58.374 23.6051 56.3573 23.6051C54.0181 23.6051 52.0284 22.6909 50.2806 21.1852L48.022 23.9009C50.1731 25.8906 52.9963 26.9661 56.2229 26.9661ZM73.5481 23.2018C73.2792 23.4707 72.7414 23.6589 72.2037 23.6589C71.4777 23.6589 70.9131 23.0136 70.9131 22.0994V15.9151H73.9245V12.7423H70.9131V8.92416H67.1218V12.7423H65.2128V15.9151H67.1218V22.7178C67.1218 25.2184 68.8427 26.9661 71.3164 26.9661C72.4188 26.9661 73.6825 26.4821 74.4892 25.7562L73.5481 23.2018ZM82.8938 12.4197C80.9579 12.4197 79.0488 12.9574 77.086 13.9523L78.4035 16.5604C79.5059 15.9958 80.7159 15.5656 82.0065 15.5656C84.292 15.5656 85.2331 16.8562 85.2331 18.335V18.6308C84.05 18.1468 82.7862 17.9048 81.6569 17.9048C78.4573 17.9048 75.9029 19.787 75.9029 22.5296C75.9029 25.1915 78.1615 26.9661 81.1192 26.9661C82.6518 26.9661 84.2382 26.3477 85.2331 25.2453V26.6435H89.0243V18.335C89.0243 14.7051 86.5237 12.4197 82.8938 12.4197ZM82.0065 24.2504C80.6621 24.2504 79.6403 23.5513 79.6403 22.422C79.6403 21.2927 80.7965 20.4592 82.2216 20.4592C83.2971 20.4592 84.3458 20.6474 85.2331 20.997V22.2607C84.9373 23.5513 83.5122 24.2504 82.0065 24.2504ZM96.3975 15.3505V12.7423H92.4718V26.6435H96.3975V20.0021C96.3975 17.394 98.2528 15.7269 101.157 15.7269V12.4197C99.0325 12.4197 97.3117 13.549 96.3975 15.3505ZM111.097 23.2018C110.828 23.4707 110.29 23.6589 109.753 23.6589C109.027 23.6589 108.462 23.0136 108.462 22.0994V15.9151H111.473V12.7423H108.462V8.92416H104.671V12.7423H102.762V15.9151H104.671V22.7178C104.671 25.2184 106.392 26.9661 108.865 26.9661C109.968 26.9661 111.231 26.4821 112.038 25.7562L111.097 23.2018ZM122.701 12.4197C120.9 12.4197 119.367 13.1994 118.507 14.4363V7.84863H114.581V26.6435H118.507V18.4157C118.507 16.91 119.77 15.7269 121.411 15.7269C122.97 15.7269 124.073 16.91 124.073 18.6308V26.6435H127.837V17.7973C127.837 14.6245 125.713 12.4197 122.701 12.4197ZM140.395 12.7423V20.9701C140.395 22.4758 139.131 23.6589 137.491 23.6589C135.931 23.6589 134.829 22.4758 134.829 20.755V12.7423H131.065V21.5885C131.065 24.7613 133.189 26.9661 136.227 26.9661C138.002 26.9661 139.535 26.1864 140.395 24.9495V26.6435H144.321V12.7423H140.395ZM156.879 12.4197C154.808 12.4197 153.114 13.3607 152.012 14.9471V7.84863H148.086V26.6435H152.012V24.4386C153.114 26.025 154.808 26.9661 156.879 26.9661C160.589 26.9661 163.251 23.9547 163.251 19.6794C163.251 15.4311 160.589 12.4197 156.879 12.4197ZM155.749 23.6589C153.652 23.6589 152.2 22.0187 152.2 19.6794C152.2 17.3671 153.652 15.7269 155.749 15.7269C157.9 15.7269 159.433 17.3671 159.433 19.6794C159.433 22.0187 157.9 23.6589 155.749 23.6589ZM190.525 8.17129H185.9L181.463 14.2212L177.027 8.17129H172.321L179.097 17.4477L172.321 26.6435H176.946L181.383 20.5936L185.819 26.6435H190.525L183.749 17.3671L190.525 8.17129Z" fill="white"/>
</svg>
